# xmcd
# 
# Track frame offsets:
#     183
#     12533
#     24008
#     36508
#     49108
#     62795
#     76833
#     94358
#     107983
#     122945
#     132908
#     147758
#     161445
#     174633
# 
# Disc length: 2522
# 
# Revision: 3
# Processed by: cddbd v1.5.2PL0 Copyright (c) Steve Scherf et al.
# Submitted via: fre:ac v1.0.31
# 
DISCID=be09d80e
DTITLE=Truck Stop - Weihnachten Im Wilden Westen
DYEAR=2000
DGENRE=Weihnachten
TTITLE0=Wir wünschen Euch ein frohes Fest
TTITLE1=Erwin der dicke Schneemann
TTITLE2=Stille Nacht
TTITLE3=Jingle Bells (Schlittenfahrt im Schnee)
TTITLE4=Ich wünsche mir zum Weihnachtsfest
TTITLE5=Papi, nur Eines wünsch ich mir
TTITLE6=Big Old Joe, der Weihnachtsbär
TTITLE7=Der Weihnachtsmann sah aus wie Papa
TTITLE8=Weihnachtstraum Montana
TTITLE9=Der Weihnachtsmann kommt heute in die Stadt
TTITLE10=Söhnchen mein Söhnchen
TTITLE11=Weiße Weihnacht im Wilden Westen
TTITLE12=Ich schenke Dir einen Schneemann
TTITLE13=Kommt der Weihnachtsmann nach Texas
EXTD=
EXTT0=
EXTT1=
EXTT2=
EXTT3=
EXTT4=
EXTT5=
EXTT6=
EXTT7=
EXTT8=
EXTT9=
EXTT10=
EXTT11=
EXTT12=
EXTT13=
PLAYORDER=
